<?xml version="1.0" encoding="UTF-8"?>
<!DOCTYPE svg PUBLIC "-//W3C//DTD SVG 1.1//EN" "http://www.w3.org/Graphics/SVG/1.1/DTD/svg11.dtd">
<!-- Creator: CorelDRAW -->
<svg xmlns="http://www.w3.org/2000/svg" xml:space="preserve" width="6.82666in" height="6.82666in" style="shape-rendering:geometricPrecision; text-rendering:geometricPrecision; image-rendering:optimizeQuality; fill-rule:evenodd; clip-rule:evenodd"
viewBox="0 0 6.82666 6.82666"
 xmlns:xlink="http://www.w3.org/1999/xlink"
 version="1.1">
 <defs>
  <style type="text/css">
   <![CDATA[
    .fil4 {fill:none}
    .fil0 {fill:#222025}
    .fil1 {fill:#27AAE1}
    .fil2 {fill:#2D2D2D}
    .fil3 {fill:#F1F2F2}
   ]]>
  </style>
 </defs>
 <g id="Layer_x0020_1">
  <metadata id="CorelCorpID_0Corel-Layer"/>
  <g id="_686988360">
   <g id="Guides">
   </g>
   <g id="Layer_2">
   </g>
   <g id="Layer_3">
   </g>
   <g id="Layer_4">
   </g>
   <g id="Layer_5">
   </g>
   <g id="Layer_6">
   </g>
   <g id="Layer_7">
   </g>
   <g id="Layer_8">
   </g>
   <g id="Layer_9">
   </g>
   <g id="Layer_10">
   </g>
   <g id="Layer_11">
   </g>
   <g id="Layer_12">
   </g>
   <g id="Layer_13">
   </g>
   <g id="Layer_14">
   </g>
   <g id="Layer_15">
   </g>
   <g id="Layer_16">
    <g>
     <g>
      <g>
       <path id="_686991336" class="fil0" d="M4.66091 5.89333l-2.49513 0c-0.120768,0 -0.218665,-0.0979016 -0.218665,-0.218665l0 -4.52267c0,-0.120768 0.0979016,-0.218665 0.218665,-0.218665l2.4951 -3.93701e-006c0.120768,0 0.218665,0.0979016 0.218665,0.218665l3.93701e-006 4.52267c0,0.120768 -0.0979016,0.218669 -0.218634,0.218669z"/>
      </g>
      <g>
       <rect id="_686991144" class="fil1" x="2.09441" y="1.338" width="2.6379" height="3.84213"/>
      </g>
      <g>
       <circle id="_686991744" class="fil2" cx="3.41335" cy="5.53673" r="0.193433"/>
      </g>
      <g>
       <g>
        <circle id="_686991000" class="fil2" cx="2.94948" cy="1.13567" r="0.0483661"/>
       </g>
       <g>
        <path id="_686990400" class="fil2" d="M3.88178 1.18403l-0.656634 0c-0.0242008,0 -0.0437992,-0.0195984 -0.0437992,-0.0437992l0 -0.00293307c0,-0.0242008 0.0195984,-0.0437992 0.0437992,-0.0437992l0.656602 0c0.0242008,0 0.0437992,0.0195984 0.0437992,0.0437992l0 0.00293307c3.14961e-005,0.0241654 -0.0196024,0.0437992 -0.0437677,0.0437992z"/>
       </g>
      </g>
     </g>
     <g>
      <g>
       <g>
        <polygon id="_686990520" class="fil3" points="3.74498,3.4547 3.97071,3.14046 4.19644,3.4547 "/>
       </g>
       <g>
        <path id="_686990760" class="fil3" d="M3.90368 3.4075c0,0.270366 -0.219965,0.490335 -0.490335,0.490335 -0.153634,0 -0.295433,-0.0699685 -0.389134,-0.191965l-0.0808661 0.112563c0.0529016,0.0603661 0.117531,0.110701 0.188965,0.146768 0.0876654,0.0442323 0.182201,0.0667008 0.281031,0.0667008 0.166768,0 0.323567,-0.0649331 0.4415,-0.182866 0.117933,-0.117933 0.182866,-0.274732 0.182866,-0.4415l-0.134028 0 0 -3.54331e-005z"/>
       </g>
      </g>
      <g>
       <g>
        <polygon id="_686990952" class="fil3" points="3.08171,3.36623 2.85598,3.68046 2.63025,3.36623 "/>
       </g>
       <g>
        <path id="_686989944" class="fil3" d="M3.79994 3.12096l0.0808661 -0.112567c-0.0529331,-0.0604685 -0.117634,-0.110866 -0.189134,-0.146933 -0.0876654,-0.0442323 -0.182201,-0.0667008 -0.281031,-0.0667008 -0.166768,0 -0.323567,0.0649331 -0.4415,0.182866 -0.117933,0.117933 -0.182866,0.274732 -0.182866,0.4415l0.134035 0c0,-0.270366 0.219965,-0.490335 0.490335,-0.490335 0.153728,3.54331e-005 0.295598,0.0700709 0.389295,0.192169z"/>
       </g>
      </g>
     </g>
    </g>
   </g>
   <g id="Layer_17">
   </g>
   <g id="Layer_18">
   </g>
   <g id="Layer_19">
   </g>
   <g id="Layer_20">
   </g>
   <g id="Layer_21">
   </g>
   <g id="Layer_22">
   </g>
   <g id="Layer_23">
   </g>
   <g id="Layer_24">
   </g>
   <g id="Layer_25">
   </g>
   <g id="Layer_26">
   </g>
  </g>
 </g>
 <rect class="fil4" width="6.82666" height="6.82666"/>
</svg>
