/* XPM */
static char * logo trayer_xpm[] = {
"40 24 14 1",
" 	c None",
".	c #F9FAFA",
"+	c #F6F7F7",
"@	c #F5F6F6",
"#	c #F3F4F4",
"$	c #F7F8F8",
"%	c #FBFCFC",
"&	c #F8F9F9",
"*	c #FAFBFB",
"=	c #FCFDFD",
"-	c #FEFFFF",
";	c #FDFEFE",
">	c #F2F3F3",
",	c #FEFEFE",
"                                        ",
"                      .+@#$.            ",
"                    %        &*         ",
"                  +            *        ",
"                 +              =       ",
"                &                .      ",
"               &                  *     ",
"               .                  .     ",
"                                   *    ",
"    *  %  .@  &*  .  .   %=%       +    ",
"    -- - #-;  -- --= -  -.@-=      +    ",
"    -- - >;-&==- ---=; =-  -=      -    ",
" %= -- - >%%-=;- -;=-- =-  ,=      =    ",
" %;&-  - >- ; -- -; --  ===-       @    ",
"  .-   *       &     .   .%        &    ",
"                                        ",
"               $                  *     ",
"                &                 *     ",
"                +                %      ",
"                 &              &       ",
"                  &+          $.        ",
"                    $*      &&          ",
"                       *+#$             ",
"                                        "};
