/* XPM */
static char * output_onlinepngtools_xpm[] = {
"40 24 63 1",
" 	c None",
".	c #0B0A0B",
"+	c #222222",
"@	c #131313",
"#	c #0F0F0F",
"$	c #202020",
"%	c #1A1A1A",
"&	c #191819",
"*	c #181818",
"=	c #1C1B1C",
"-	c #181819",
";	c #161616",
">	c #171717",
",	c #111011",
"'	c #161516",
")	c #1D1D1D",
"!	c #0A090A",
"~	c #232324",
"{	c #1B1B1B",
"]	c #0E0E0E",
"^	c #1D1D1E",
"/	c #282929",
"(	c #101010",
"_	c #0D0D0D",
":	c #0D0C0D",
"<	c #181718",
"[	c #010001",
"}	c #0D0D0E",
"|	c #060506",
"1	c #2A2A2A",
"2	c #272727",
"3	c #151415",
"4	c #212021",
"5	c #0C0B0C",
"6	c #151515",
"7	c #020202",
"8	c #0E0D0E",
"9	c #080708",
"0	c #121212",
"a	c #1B1A1B",
"b	c #090809",
"c	c #252526",
"d	c #040304",
"e	c #0F0E0F",
"f	c #242424",
"g	c #020102",
"h	c #000000",
"i	c #242425",
"j	c #030203",
"k	c #121112",
"l	c #292929",
"m	c #212122",
"n	c #1C1C1C",
"o	c #282828",
"p	c #1A191A",
"q	c #212121",
"r	c #232323",
"s	c #1B1B1C",
"t	c #19191A",
"u	c #100F10",
"v	c #1A1A1B",
"w	c #141314",
"x	c #1E1D1E",
"                                        ",
"                      .+@#$%            ",
"                    &        *=         ",
"                  -            ;        ",
"                 >              =       ",
"                ,                '      ",
"               =                  )     ",
"               !                  ~     ",
"                                   #    ",
"    {  )  ]   $^ /(  '   ]_:       <    ",
"    [[ [ }[| >[[ 1[[ [  [,2[3      4    ",
"    [[ [ [5[67![ 1[[[[ 8[  99      0    ",
" ab [[ [ [c*[|3[ 1d[[[ e[  d8      f    ",
" )g8[  [ hi j k[ l[ k[  90<[m      3    ",
"  kd&  n       o     )   :5        <    ",
"                                        ",
"               p                  q     ",
"                '                 {     ",
"                r                0      ",
"                 a              s       ",
"                  @t          r3        ",
"                    >3      uv          ",
"                       w5ex             ",
"                                        "};
